<svg width="21" height="20" viewBox="0 0 21 20" fill="none" xmlns="http://www.w3.org/2000/svg">
<path d="M10.4998 0.000244141C7.78611 0.000244141 7.44487 0.0127439 6.37864 0.060243C5.31241 0.110242 4.58617 0.277739 3.94993 0.525234C3.28256 0.776253 2.67807 1.17001 2.17872 1.67896C1.67007 2.17857 1.27637 2.78299 1.02499 3.45018C0.777495 4.08517 0.608748 4.81265 0.559999 5.87513C0.5125 6.94386 0.5 7.28386 0.5 10.0013C0.5 12.7163 0.5125 13.0562 0.559999 14.1225C0.609998 15.1875 0.777495 15.9137 1.02499 16.5499C1.28124 17.2074 1.62248 17.7649 2.17872 18.3211C2.73371 18.8774 3.2912 19.2199 3.94868 19.4749C4.58617 19.7224 5.31116 19.8911 6.37614 19.9399C7.44362 19.9874 7.78361 19.9999 10.4998 19.9999C13.216 19.9999 13.5548 19.9874 14.6222 19.9399C15.686 19.8899 16.4147 19.7224 17.0509 19.4749C17.7179 19.2237 18.3219 18.83 18.8209 18.3211C19.3771 17.7649 19.7184 17.2074 19.9746 16.5499C20.2209 15.9137 20.3896 15.1875 20.4396 14.1225C20.4871 13.0562 20.4996 12.7163 20.4996 10.0001C20.4996 7.28386 20.4871 6.94386 20.4396 5.87638C20.3896 4.81265 20.2209 4.08517 19.9746 3.45018C19.7233 2.78297 19.3296 2.17855 18.8209 1.67896C18.3217 1.16982 17.7172 0.776036 17.0497 0.525234C16.4122 0.277739 15.6847 0.108992 14.621 0.060243C13.5535 0.0127439 13.2148 0.000244141 10.4973 0.000244141H10.5011H10.4998ZM9.60358 1.80271H10.5011C13.171 1.80271 13.4873 1.81146 14.541 1.86021C15.516 1.90396 16.046 2.06771 16.3984 2.20395C16.8647 2.3852 17.1984 2.6027 17.5484 2.95269C17.8984 3.30268 18.1147 3.63518 18.2959 4.10267C18.4334 4.45391 18.5959 4.9839 18.6397 5.95888C18.6884 7.01261 18.6984 7.32886 18.6984 9.99756C18.6984 12.6663 18.6884 12.9837 18.6397 14.0375C18.5959 15.0125 18.4322 15.5412 18.2959 15.8937C18.1356 16.3279 17.8797 16.7205 17.5472 17.0424C17.1972 17.3924 16.8647 17.6087 16.3972 17.7899C16.0472 17.9274 15.5172 18.0899 14.541 18.1349C13.4873 18.1824 13.171 18.1937 10.5011 18.1937C7.83111 18.1937 7.51362 18.1824 6.45989 18.1349C5.48491 18.0899 4.95617 17.9274 4.60367 17.7899C4.1693 17.6298 3.77635 17.3744 3.45369 17.0424C3.12089 16.72 2.86461 16.327 2.70371 15.8924C2.56746 15.5412 2.40371 15.0112 2.35996 14.0362C2.31247 12.9825 2.30247 12.6663 2.30247 9.99506C2.30247 7.32511 2.31247 7.01011 2.35996 5.95638C2.40496 4.9814 2.56746 4.45141 2.70496 4.09892C2.88621 3.63268 3.1037 3.29893 3.45369 2.94894C3.80369 2.59895 4.13618 2.3827 4.60367 2.20145C4.95617 2.06396 5.48491 1.90146 6.45989 1.85646C7.38237 1.81396 7.73986 1.80146 9.60358 1.80021V1.80271V1.80271ZM15.8385 3.46268C15.6809 3.46268 15.5248 3.49372 15.3792 3.55402C15.2337 3.61433 15.1014 3.70272 14.9899 3.81414C14.8785 3.92557 14.7901 4.05786 14.7298 4.20345C14.6695 4.34903 14.6385 4.50507 14.6385 4.66266C14.6385 4.82024 14.6695 4.97628 14.7298 5.12187C14.7901 5.26746 14.8785 5.39974 14.9899 5.51117C15.1014 5.6226 15.2337 5.71099 15.3792 5.77129C15.5248 5.8316 15.6809 5.86263 15.8385 5.86263C16.1567 5.86263 16.4619 5.73621 16.687 5.51117C16.912 5.28613 17.0384 4.98091 17.0384 4.66266C17.0384 4.3444 16.912 4.03918 16.687 3.81414C16.4619 3.5891 16.1567 3.46268 15.8385 3.46268V3.46268ZM10.5011 4.86515C9.81991 4.85453 9.14345 4.97951 8.51107 5.23282C7.87869 5.48614 7.30302 5.86272 6.81757 6.34065C6.33212 6.81859 5.9466 7.38831 5.68345 8.01667C5.4203 8.64502 5.28479 9.31945 5.28479 10.0007C5.28479 10.6819 5.4203 11.3563 5.68345 11.9847C5.9466 12.613 6.33212 13.1828 6.81757 13.6607C7.30302 14.1386 7.87869 14.5152 8.51107 14.7685C9.14345 15.0219 9.81991 15.1468 10.5011 15.1362C11.8492 15.1152 13.135 14.5649 14.081 13.6041C15.0269 12.6432 15.5571 11.349 15.5571 10.0007C15.5571 8.65237 15.0269 7.35812 14.081 6.39731C13.135 5.4365 11.8492 4.88619 10.5011 4.86515V4.86515ZM10.5011 6.66637C11.3852 6.66637 12.2331 7.0176 12.8583 7.64278C13.4835 8.26797 13.8347 9.11591 13.8347 10.0001C13.8347 10.8842 13.4835 11.7321 12.8583 12.3573C12.2331 12.9825 11.3852 13.3337 10.5011 13.3337C9.61691 13.3337 8.76898 12.9825 8.14379 12.3573C7.5186 11.7321 7.16737 10.8842 7.16737 10.0001C7.16737 9.11591 7.5186 8.26797 8.14379 7.64278C8.76898 7.0176 9.61691 6.66637 10.5011 6.66637V6.66637Z" fill="white"/>
</svg>
