<svg width="24" height="45" viewBox="0 0 24 45" fill="none" xmlns="http://www.w3.org/2000/svg">
<path fill-rule="evenodd" clip-rule="evenodd" d="M23.4992 43.7724C23.3409 43.9302 23.1528 44.0554 22.9457 44.1408C22.7386 44.2263 22.5166 44.2703 22.2924 44.2703C22.0682 44.2703 21.8462 44.2263 21.6391 44.1408C21.432 44.0554 21.2439 43.9302 21.0856 43.7724L0.631046 23.4352C0.472307 23.2778 0.346367 23.0908 0.260435 22.8849C0.174505 22.679 0.130272 22.4582 0.130272 22.2353C0.130272 22.0124 0.174505 21.7917 0.260435 21.5858C0.346367 21.3799 0.472307 21.1928 0.631046 21.0354L21.0856 0.698261C21.4057 0.380028 21.8398 0.201248 22.2924 0.201248C22.7451 0.201248 23.1792 0.380028 23.4992 0.698261C23.8193 1.01649 23.9991 1.4481 23.9991 1.89815C23.9991 2.3482 23.8193 2.77981 23.4992 3.09805L4.24809 22.2353L23.4992 41.3726C23.658 41.53 23.7839 41.717 23.8698 41.9229C23.9558 42.1288 24 42.3496 24 42.5725C24 42.7954 23.9558 43.0161 23.8698 43.222C23.7839 43.4279 23.658 43.6149 23.4992 43.7724Z" fill="#626262"/>
</svg>
