<svg width="17" height="12" viewBox="0 0 17 12" fill="none" xmlns="http://www.w3.org/2000/svg">
<path d="M0 2C0 1.46957 0.223883 0.960859 0.622398 0.585786C1.02091 0.210714 1.56141 0 2.125 0H14.875C15.4386 0 15.9791 0.210714 16.3776 0.585786C16.7761 0.960859 17 1.46957 17 2V10C17 10.5304 16.7761 11.0391 16.3776 11.4142C15.9791 11.7893 15.4386 12 14.875 12H2.125C1.56141 12 1.02091 11.7893 0.622398 11.4142C0.223883 11.0391 0 10.5304 0 10V2ZM2.125 1C1.84321 1 1.57296 1.10536 1.3737 1.29289C1.17444 1.48043 1.0625 1.73478 1.0625 2V2.217L8.5 6.417L15.9375 2.217V2C15.9375 1.73478 15.8256 1.48043 15.6263 1.29289C15.427 1.10536 15.1568 1 14.875 1H2.125ZM15.9375 3.383L10.8821 6.238L15.9375 9.114V3.384V3.383ZM15.9014 10.261L9.85044 6.82L8.5 7.583L7.1485 6.82L1.09863 10.26C1.1594 10.4724 1.2929 10.6601 1.47846 10.7938C1.66401 10.9276 1.89126 11.0001 2.125 11H14.875C15.1086 11.0001 15.3357 10.9278 15.5213 10.7942C15.7068 10.6607 15.8404 10.4732 15.9014 10.261ZM1.0625 9.114L6.11788 6.238L1.0625 3.383V9.113V9.114Z" fill="#252B42"/>
</svg>
