<svg width="197" height="94" viewBox="0 0 197 94" fill="none" xmlns="http://www.w3.org/2000/svg">
<path fill-rule="evenodd" clip-rule="evenodd" d="M0 3.25658V6.51316L1.73629 7.79377C3.23237 8.89742 3.53532 9.02199 3.92643 8.69639C6.58682 6.48202 9.04968 4.32144 11.148 2.3616L13.677 0H6.83834H0V3.25658ZM17.0682 0.49548C17.151 0.767853 17.4839 2.1971 17.808 3.67137C18.1324 5.14592 18.4515 6.40585 18.517 6.47154C18.5826 6.53751 19.4389 5.84073 20.4195 4.92366C21.4001 4.00632 22.9615 2.62491 23.889 1.85366C24.8165 1.08241 25.6962 0.34995 25.8437 0.225655C25.9915 0.101643 24.0436 0 21.5151 0C17.2679 0 16.9294 0.0376565 17.0682 0.49548ZM27.1431 2.28176C24.6452 4.29482 21.5507 6.99675 19.5423 8.91836L18.8788 9.55315L19.3719 12.5631L19.8648 15.5728L20.9833 15.8746C21.5985 16.0405 22.2558 16.1173 22.444 16.0448C22.6323 15.9726 23.274 14.7217 23.87 13.2653C25.3585 9.63044 27.6419 5.06239 29.3491 2.30413C30.2808 0.798998 30.6366 0 30.3749 0C30.1548 0 28.7005 1.02663 27.1431 2.28176ZM32.0162 2.65238C31.0512 4.11079 29.6354 6.56299 28.8695 8.1021C27.383 11.09 25.1513 16.2223 25.1513 16.653C25.1513 16.8684 32.5481 18.2422 32.6346 18.0429C33.2475 16.6286 37.3842 3.258 37.976 0.778612L38.1617 0L35.9661 0.000570273L33.7706 0.000846768L32.0162 2.65238ZM40.4386 1.06174C39.6408 4.11136 37.87 18.2167 38.2385 18.5856C38.3312 18.6788 41.2109 18.8217 44.6377 18.9036L50.8679 19.0522V9.52625V0H45.7921H40.7161L40.4386 1.06174ZM13.2822 3.55104C12.4273 4.42874 10.4175 6.28638 8.81597 7.6791L5.90407 10.2111L7.96817 11.1511C9.10337 11.6681 10.5113 12.2638 11.0971 12.4748L12.1619 12.8584L14.2376 10.7924L16.3133 8.72668L15.9143 6.55762C15.695 5.3645 15.3627 3.84097 15.1759 3.17193L14.8365 1.95531L13.2822 3.55104ZM0 10.6174V11.6214L0.706498 11.1577C1.09507 10.9025 1.413 10.6593 1.413 10.6174C1.413 10.5755 1.09507 10.3323 0.706498 10.0772L0 9.61346V10.6174ZM1.89144 13.3075L0 14.7418V20.4186C0 23.5407 0.104562 26.0529 0.232014 26.0008C0.359749 25.949 1.46669 24.7599 2.69176 23.3584C3.91711 21.9569 6.11856 19.4998 7.58384 17.8982C9.04911 16.2968 10.1778 14.9159 10.0919 14.8299C9.97095 14.7087 5.99676 12.8397 4.08158 12.0034C3.91711 11.9314 2.93168 12.5184 1.89144 13.3075ZM15.5529 12.8723L14.6042 13.8528L15.2855 14.1084C17.3132 14.8692 17.3378 14.8661 17.1391 13.8703C17.0385 13.3661 16.956 12.7143 16.956 12.4224C16.956 11.6568 16.6267 11.7624 15.5529 12.8723ZM10.7057 18.0471C7.5926 21.2816 0.753691 29.1628 0.917598 29.3268C0.995313 29.4049 2.67198 29.7167 4.64339 30.0199C8.48533 30.6108 10.4669 31.0703 13.1146 31.984C14.7294 32.5415 14.8124 32.5437 15.6487 32.0542C16.3625 31.6366 16.7268 30.989 17.7362 28.3435L18.9593 25.1384L18.2994 21.298L17.6396 17.4573L15.7674 16.8245C14.7376 16.4766 13.6532 16.115 13.3576 16.021C12.9484 15.8908 12.3151 16.3746 10.7057 18.0471ZM35.243 17.8373C35.1619 18.1487 35.2105 18.4036 35.3515 18.4036C35.4922 18.4036 35.6075 18.1487 35.6075 17.8373C35.6075 17.5259 35.5586 17.271 35.4993 17.271C35.4397 17.271 35.3244 17.5259 35.243 17.8373ZM20.3669 18.9257C20.378 19.3393 20.4839 19.926 20.6023 20.2295C20.7906 20.7114 20.8595 20.6615 21.1478 19.8334C21.5849 18.5768 21.5719 18.4944 20.9124 18.3214C20.4489 18.2 20.3508 18.309 20.3669 18.9257ZM22.7685 22.253L21.4773 25.4855L22.0959 28.0615C22.4466 29.5204 22.8852 30.7025 23.1079 30.7883C23.5414 30.9548 29.0651 28.9808 29.5576 28.4833C29.7275 28.3118 30.2879 26.579 30.8028 24.6325C31.3177 22.6859 31.7885 20.9546 31.8492 20.785C31.9179 20.5922 30.7641 20.2853 28.7672 19.9653C27.0117 19.6839 25.2341 19.356 24.8173 19.2371C24.0721 19.0239 24.0382 19.074 22.7685 22.253ZM34.383 20.875C34.303 21.005 33.8534 22.5469 33.3843 24.3015C32.4348 27.8522 32.4105 27.8024 34.5579 26.7075L35.345 26.3063L35.2644 23.5812C35.2124 21.8326 35.0663 20.8173 34.8564 20.7473C34.6764 20.6876 34.4633 20.7451 34.383 20.875ZM37.7796 23.2066C37.6917 24.3728 37.662 25.3694 37.714 25.4215C37.7657 25.4734 40.0562 24.6483 42.8036 23.5877L47.7989 21.6596L45.0237 21.4693C43.4974 21.3648 41.279 21.2357 40.0941 21.1825L37.9398 21.0859L37.7796 23.2066ZM43.8769 25.714L37.5922 28.1716L37.5891 29.5216L37.5857 30.8718L44.1561 30.7957L50.7266 30.7198L50.8054 26.9683C50.8665 24.0614 50.8029 23.2213 50.5228 23.2366C50.3242 23.2477 47.3334 24.3624 43.8769 25.714ZM33.2761 29.8024C32.3822 30.1337 31.6511 30.5077 31.6511 30.6332C31.6511 30.7586 32.4141 30.8614 33.3467 30.8614H35.0423V30.012C35.0423 29.5448 35.0104 29.1711 34.9717 29.1813C34.933 29.1917 34.1699 29.4712 33.2761 29.8024ZM19.6361 30.0949C19.4132 30.6431 19.5872 30.9814 20.0089 30.82C20.1533 30.7648 20.1748 30.465 20.0569 30.1535C19.8571 29.6255 19.8286 29.6215 19.6361 30.0949ZM0 36.9487C0 39.6738 0.0731944 41.9035 0.162778 41.9035C0.25208 41.9035 1.1742 41.4091 2.21162 40.8049C3.24876 40.2007 5.17016 39.1682 6.48114 38.5104C8.15695 37.6698 9.3108 36.8422 10.3669 35.723C11.1932 34.8476 11.8692 34.1131 11.8692 34.091C11.8692 33.7502 2.73358 31.9939 0.961121 31.9939H0V36.9487ZM3.30981 42.9624L0 44.8449V51.8513C0 56.3262 0.104562 58.9228 0.289382 59.0372C0.448486 59.1357 2.21699 58.1595 4.21978 56.8679L7.8605 54.5193L7.32017 53.4584C5.9798 50.8258 5.55675 46.1363 6.37431 42.9749C6.61622 42.0397 6.77023 41.2308 6.71682 41.1773C6.66341 41.1237 5.13031 41.927 3.30981 42.9624ZM18.9689 41.6031C16.5671 42.2163 15.5116 43.8209 15.5116 46.8583C15.5116 50.3264 16.7418 51.7191 20.0722 52.0215C21.761 52.1749 21.7774 52.1851 22.5432 53.5515C23.2966 54.8953 23.3455 54.927 24.6568 54.9273C25.3952 54.9276 25.9991 54.7976 25.9991 54.6387C25.9991 54.4799 25.6682 53.8245 25.2635 53.1823L24.5276 52.0147L25.4105 51.3227C26.7644 50.261 27.1295 49.2949 27.1295 46.7728C27.1295 44.2356 26.5824 43.0672 24.9467 42.1099C23.9093 41.5029 20.4947 41.2132 18.9689 41.6031ZM62.1012 41.5264L61.0415 41.6546V46.7164V51.7783L62.3216 51.9708C64.6421 52.3193 68.7338 51.9943 69.7848 51.3779C71.4858 50.3799 71.9215 49.4974 71.9215 47.05C71.9215 44.2478 71.479 43.215 69.8747 42.2727C68.7807 41.6305 68.2466 41.5224 65.8863 41.4646C64.3874 41.4281 62.6842 41.4559 62.1012 41.5264ZM77.3616 41.5303L76.0192 41.6515V46.7323V51.8131H77.4322H78.8452V50.2559V48.6987H80.3594H81.8738L82.9059 50.2559C83.9018 51.7587 83.982 51.8131 85.2065 51.8131C85.9823 51.8131 86.4754 51.6851 86.4754 51.4841C86.4754 51.3029 86.0786 50.5353 85.5937 49.7782L84.712 48.4016L85.4301 47.7351C86.9213 46.3504 86.6235 43.1365 84.8991 42.0046C84.1007 41.4805 80.4566 41.2512 77.3616 41.5303ZM93.8577 41.6031C91.4559 42.2163 90.4004 43.8209 90.4004 46.8583C90.4004 49.3736 90.895 50.4807 92.4199 51.3785C93.845 52.2171 98.5998 52.2174 100.04 51.3788C101.602 50.4694 102.061 49.2768 101.961 46.3852C101.887 44.2206 101.793 43.8407 101.171 43.1731C100.782 42.7566 100.1 42.226 99.6539 41.9938C98.6927 41.4929 95.2086 41.2579 93.8577 41.6031ZM109.277 41.7277C107.002 42.5819 106.226 43.8962 106.226 46.8923C106.226 50.5727 107.517 51.84 111.461 52.0291C112.718 52.0894 114.255 52.0286 114.877 51.8938C115.948 51.6619 116.012 51.5894 116.092 50.5028L116.176 49.3566L113.218 49.4883C110.334 49.6168 110.242 49.6021 109.53 48.8892C108.99 48.3481 108.801 47.8654 108.801 47.0313C108.801 44.3214 109.777 43.707 113.618 43.9975L116.148 44.1889V43.0765C116.148 41.7229 116.006 41.6546 112.79 41.4658C111.065 41.3644 110.041 41.4409 109.277 41.7277ZM135.012 41.53L133.669 41.6515V46.7323V51.8131H134.941H136.213V50.2559V48.6987H137.764H139.316L140.348 50.2559C141.363 51.7879 141.402 51.8131 142.753 51.8131C143.508 51.8131 144.122 51.7177 144.118 51.6008C144.114 51.4838 143.677 50.7063 143.147 49.8728L142.183 48.3575L142.908 47.7326C143.46 47.2569 143.666 46.7586 143.774 45.6417C143.95 43.7991 143.469 42.5864 142.32 41.9785C141.419 41.502 137.788 41.2792 135.012 41.53ZM190.507 41.6022C188.23 42.1855 187.082 43.8738 187.081 46.6403C187.08 50.4328 188.444 51.8448 192.287 52.0291C193.542 52.0894 195.078 52.0286 195.7 51.8938C196.772 51.6616 196.835 51.59 196.915 50.4994L197 49.3496L194.231 49.4637C190.554 49.6151 190.079 49.3739 189.961 47.2912C189.913 46.4469 189.944 45.4724 190.031 45.1258C190.273 44.1612 191.83 43.7758 194.618 43.9907L196.972 44.1719V43.068C196.972 42.2778 196.831 41.91 196.477 41.7735C195.659 41.4587 191.529 41.3401 190.507 41.6022ZM31.4118 45.51C31.5245 50.0166 31.7704 50.6596 33.722 51.5475C35.3227 52.2755 38.4358 52.2755 40.0364 51.5475C41.988 50.6596 42.2339 50.0166 42.3467 45.51L42.4447 41.5869L41.075 41.6744L39.7052 41.7619L39.6317 45.1595C39.5441 49.2131 39.3339 49.548 36.8792 49.548C34.4246 49.548 34.2143 49.2131 34.1267 45.1595L34.0532 41.7619L32.6835 41.6744L31.3137 41.5869L31.4118 45.51ZM47.8172 46.5202C46.5418 49.2151 45.4985 51.5085 45.4985 51.6166C45.4985 51.7248 46.0473 51.8131 46.7179 51.8131C47.8331 51.8131 47.9775 51.7284 48.409 50.8221L48.8806 49.8312H51.4331H53.9855L54.4572 50.8221C54.8887 51.7284 55.0331 51.8131 56.1483 51.8131C56.8189 51.8131 57.3697 51.7177 57.3719 51.6008C57.3745 51.4838 56.3339 49.1907 55.06 46.5044L52.7435 41.6204H51.4399H50.1362L47.8172 46.5202ZM119.822 46.7167V51.8131H124.626H129.431V50.539V49.2649H126.039C122.837 49.2649 122.648 49.2335 122.648 48.6987C122.648 48.172 122.837 48.1324 125.333 48.1324H128.018V46.8583V45.5842H125.333C122.657 45.5842 122.648 45.5817 122.648 44.8764V44.1685H126.039H129.431V42.8945V41.6204H124.626H119.822V46.7167ZM152.129 41.9607C151.843 42.3324 147.517 51.4552 147.517 51.6874C147.517 51.7565 148.096 51.8131 148.803 51.8131C150.006 51.8131 150.116 51.7488 150.502 50.8221L150.916 49.8312H153.46H156.004L156.476 50.8221C156.907 51.7284 157.051 51.8131 158.167 51.8131C158.837 51.8131 159.386 51.6888 159.386 51.5368C159.386 51.3847 158.371 49.1233 157.13 46.5112L154.874 41.7619L153.643 41.6775C152.879 41.6252 152.306 41.7322 152.129 41.9607ZM163.248 41.8092C163.145 41.9128 163.06 44.2062 163.06 46.9056V51.8131H164.463H165.866L165.947 48.911L166.027 46.0089L167.421 47.92C169.259 50.441 169.662 50.4416 171.453 47.9249L172.81 46.0185L172.89 48.9158L172.971 51.8131H174.374H175.777V46.7167V41.6204L174.434 41.6249L173.092 41.6294L171.397 44.1629C170.464 45.5565 169.612 46.7009 169.505 46.7065C169.397 46.7122 168.524 45.57 167.566 44.1685C165.836 41.6373 165.816 41.6204 164.63 41.6204C163.974 41.6204 163.352 41.7053 163.248 41.8092ZM180.298 46.7167V51.8131H181.57H182.842V46.7167V41.6204H181.57H180.298V46.7167ZM23.4354 44.2996C24.3937 44.796 24.5861 45.23 24.5861 46.8943C24.5861 47.8586 24.4217 48.3229 23.8924 48.853C23.2964 49.4504 22.9369 49.548 21.3363 49.548C19.7356 49.548 19.3761 49.4504 18.7801 48.853C18.2342 48.3062 18.0864 47.8654 18.0864 46.7838C18.0864 44.7008 18.9616 43.9086 21.2797 43.8939C22.0255 43.8894 22.9957 44.0717 23.4354 44.2996ZM68.482 44.5355C69.1557 44.9777 69.2363 45.2054 69.2326 46.6525C69.2301 47.5443 69.1348 48.4141 69.0207 48.5854C68.5801 49.2465 67.5023 49.548 65.5817 49.548H63.5849V46.9056C63.5849 45.452 63.6801 44.166 63.7968 44.0476C64.1865 43.6518 67.6922 44.0171 68.482 44.5355ZM83.3103 44.2252C83.7947 44.7105 83.7291 45.7762 83.2023 45.9786C82.9565 46.0732 81.8755 46.1505 80.8002 46.1505H78.8452V45.2068C78.8452 44.6875 78.93 44.1779 79.0337 44.0743C79.3658 43.7413 82.9536 43.8679 83.3103 44.2252ZM98.3242 44.2996C99.2825 44.796 99.475 45.23 99.475 46.8943C99.475 47.8586 99.3105 48.3229 98.7812 48.853C98.1852 49.4504 97.8257 49.548 96.2251 49.548C94.6244 49.548 94.265 49.4504 93.669 48.853C93.123 48.3062 92.9752 47.8654 92.9752 46.7838C92.9752 44.7008 93.8504 43.9086 96.1686 43.8939C96.9143 43.8894 97.8845 44.0717 98.3242 44.2996ZM140.856 44.3302C142.017 45.4942 141.138 46.1505 138.417 46.1505H136.213V45.2068C136.213 44.6875 136.298 44.1779 136.401 44.0743C136.505 43.9703 137.45 43.8854 138.501 43.8854C139.861 43.8854 140.539 44.0137 140.856 44.3302ZM52.2461 45.8489C52.5762 46.6176 52.8461 47.3184 52.8461 47.4062C52.8461 47.4942 52.1967 47.5661 51.4028 47.5661C50.3618 47.5661 49.9989 47.4676 50.1001 47.2122C50.9719 45.0171 51.244 44.4517 51.4288 44.4517C51.5484 44.4517 51.916 45.0805 52.2461 45.8489ZM154.435 46.0822L155.121 47.5661H153.556C152.695 47.5661 152.034 47.4699 152.086 47.3524C152.137 47.2349 152.421 46.5299 152.716 45.7858C153.011 45.0414 153.364 44.4698 153.501 44.5154C153.637 44.561 154.057 45.266 154.435 46.0822ZM5.7865 58.743L2.96729 60.5763L4.52159 60.6131C6.01824 60.6488 7.71864 60.5854 7.82065 60.4902C7.88565 60.4296 8.69643 56.9095 8.64528 56.9095C8.62352 56.9095 7.33684 57.7345 5.7865 58.743ZM10.6342 59.2453C10.3157 60.4367 10.4189 60.5902 11.5394 60.5902C12.1354 60.5902 12.6983 60.5146 12.7907 60.422C12.9467 60.2657 11.2613 58.6083 10.9465 58.6083C10.8685 58.6083 10.728 58.8951 10.6342 59.2453ZM15.2604 62.5772C14.4055 62.7094 12.8532 62.8994 11.811 62.9993C9.74064 63.1975 9.77483 63.1624 9.4634 65.4034L9.2865 66.6775L12.8416 68.4471C14.7969 69.4205 16.5612 70.2167 16.7624 70.2167C17.3383 70.2167 22.89 65.1362 22.8945 64.6053C22.8965 64.3434 22.97 63.8612 23.0578 63.5336C23.2082 62.9727 23.0796 62.9272 20.8637 62.7539C19.5694 62.6525 18.1287 62.5172 17.6625 62.4532C17.1962 62.3889 16.1152 62.4447 15.2604 62.5772ZM0 71.9154C0 76.8986 0.0955186 80.9743 0.21195 80.9726C0.32838 80.9706 1.68457 80.5883 3.2253 80.1232C4.76604 79.6577 6.06938 79.2769 6.12195 79.2769C6.17423 79.2769 6.22368 77.5888 6.2316 75.5254C6.23979 73.4619 6.34238 70.9072 6.45994 69.848L6.67359 67.9222L4.5377 66.4114C3.36322 65.5804 1.96378 64.4405 1.42826 63.8779C0.892449 63.3153 0.352119 62.8552 0.22721 62.8552C0.102301 62.8552 0 66.9323 0 71.9154ZM27.5534 64.3001C26.6209 65.092 25.6801 65.9102 25.463 66.1186C25.1728 66.3975 23.6324 73.8974 23.8652 73.8974C23.8861 73.8974 26.3775 73.2694 29.4019 72.5018L34.901 71.1065L34.9861 69.8361C35.057 68.7781 34.8323 68.0881 33.6412 65.7103L32.2112 62.8552L30.7301 62.8578C29.3618 62.86 29.1199 62.9699 27.5534 64.3001ZM37.5857 65.5354C37.5857 68.8616 38.1359 70.3528 39.274 70.1093C39.6665 70.0253 42.1497 69.5052 44.792 68.9533C47.4343 68.4015 49.8822 67.8842 50.232 67.8038C50.83 67.6665 50.8679 67.5145 50.8679 65.2565V62.8552H44.2268H37.5857V65.5354ZM5.50447 64.1392C6.76571 65.0376 6.9299 65.0883 7.10851 64.6347C7.61945 63.3391 7.4335 63.1384 5.72349 63.1384H4.09939L5.50447 64.1392ZM20.5235 70.3469L19.1453 71.5842L20.296 72.1725C20.929 72.4959 21.5047 72.666 21.5753 72.5505C21.7423 72.277 22.1397 69.0802 22.0046 69.0969C21.9478 69.1037 21.2814 69.6663 20.5235 70.3469ZM8.94116 69.8627C8.63483 70.9454 8.41525 77.9292 8.69078 77.8253C9.10083 77.6704 14.7898 72.1974 14.6621 72.0802C14.4925 71.9245 9.35234 69.3673 9.20907 69.3673C9.1387 69.3673 9.01831 69.5904 8.94116 69.8627ZM45.1467 71.3246C42.3888 71.9075 40.0709 72.4455 39.9963 72.5205C39.8454 72.6714 44.7815 81.4907 45.308 82.0114C45.4906 82.1917 46.6512 82.6195 47.887 82.9624C49.1231 83.3053 50.2996 83.649 50.5011 83.7266C50.7955 83.8398 50.8679 82.5199 50.8679 77.0421C50.8679 71.7577 50.7882 70.222 50.5146 70.2407C50.3205 70.254 47.9048 70.7419 45.1467 71.3246ZM37.3156 75.061C37.3088 76.2462 37.2254 77.7836 37.1304 78.4776L36.9578 79.7395L39.3206 80.4564C40.6203 80.8505 41.723 81.1419 41.7716 81.1042C41.8199 81.0663 41.1046 79.7157 40.182 78.1033C39.2593 76.4909 38.2397 74.6618 37.9161 74.0389L37.328 72.9064L37.3156 75.061ZM15.1191 75.202C14.0311 76.2227 13.3316 77.0013 13.5648 76.932C13.7979 76.8626 15.4308 76.3824 17.1933 75.8648L20.398 74.9237L18.8889 74.1409C18.0589 73.7102 17.3163 73.3552 17.2386 73.3521C17.1608 73.3489 16.2071 74.1813 15.1191 75.202ZM31.1566 74.5214C29.2524 75.0041 27.6947 75.4818 27.6947 75.5829C27.6947 75.7986 29.5082 76.7083 32.5696 78.028L34.7597 78.9722V76.2932C34.7597 74.8198 34.7278 73.621 34.6891 73.629C34.6504 73.6372 33.0607 74.0389 31.1566 74.5214ZM23.3274 77.0826C23.2511 77.4328 22.7436 80.2041 22.1999 83.2407C21.6562 86.2773 20.9697 89.9405 20.6744 91.3808L20.1377 93.9997H27.3073H34.4771L34.5243 88.1955C34.55 85.0032 34.582 82.1883 34.595 81.94C34.6108 81.6331 33.8952 81.1945 32.3576 80.5688C31.1142 80.0628 28.6683 78.928 26.9224 78.0472C25.1762 77.1664 23.6844 76.4456 23.6072 76.4456C23.5298 76.4456 23.404 76.7324 23.3274 77.0826ZM18.6516 77.9326C12.646 79.6769 8.80495 81.0178 8.64924 81.4241C8.42203 82.0173 8.42994 89.0973 8.66082 91.8335L8.84338 93.9997H13.268H17.6924L18.1782 91.5223C19.4872 84.8478 20.6422 78.2406 20.5696 77.8428C20.4972 77.447 20.2901 77.4566 18.6516 77.9326ZM1.90755 83.0185L0 83.6082V85.1233C0 85.9565 0.0980609 86.6383 0.217883 86.6383C0.337988 86.6383 1.29996 85.6827 2.35575 84.5148C3.41154 83.3469 4.17173 82.3998 4.04513 82.41C3.91852 82.4202 2.95684 82.694 1.90755 83.0185ZM37.0205 88.1955V93.9997H43.3957C48.4186 93.9997 49.7268 93.9247 49.5626 93.6458C49.302 93.2033 44.0069 84.5476 43.9216 84.4251C43.8456 84.3158 37.5303 82.3984 37.2325 82.3942C37.1158 82.3927 37.0205 85.0032 37.0205 88.1955ZM3.03794 87.2603L0 90.5271V92.2636V93.9997L3.17924 94H6.35849L6.28021 89.8238C6.1553 83.1798 6.54557 83.4882 3.03794 87.2603ZM47.8817 86.2844C48.1123 86.7128 48.8787 87.9549 49.5843 89.0449L50.8679 91.0268L50.7972 88.6508L50.7266 86.2745L49.4549 85.8945C47.5524 85.326 47.3874 85.3668 47.8817 86.2844Z" fill="white"/>
</svg>
