<svg width="135" height="64" viewBox="0 0 135 64" fill="none" xmlns="http://www.w3.org/2000/svg">
<path fill-rule="evenodd" clip-rule="evenodd" d="M0 2.21725V4.43449L1.18984 5.3064C2.21508 6.05782 2.42268 6.14263 2.6907 5.92095C4.51381 4.41329 6.20156 2.94226 7.63948 1.6079L9.37254 0H4.68617H0V2.21725ZM11.6965 0.337348C11.7532 0.522794 11.9813 1.4959 12.2035 2.49966C12.4258 3.50361 12.6444 4.36143 12.6893 4.40615C12.7343 4.45107 13.3211 3.97667 13.9931 3.35228C14.6651 2.72771 15.735 1.78717 16.3706 1.26207C17.0062 0.736961 17.6091 0.238264 17.7102 0.153638C17.8114 0.069204 16.4765 0 14.7439 0C11.8334 0 11.6014 0.0256385 11.6965 0.337348ZM18.6006 1.55354C16.8888 2.92413 14.7683 4.76374 13.3919 6.07208L12.9372 6.50427L13.2752 8.55361L13.6129 10.6028L14.3794 10.8083C14.801 10.9212 15.2515 10.9735 15.3804 10.9241C15.5094 10.875 15.9492 10.0233 16.3576 9.03168C17.3776 6.55689 18.9424 3.44674 20.1123 1.56877C20.7508 0.543998 20.9946 0 20.8153 0C20.6644 0 19.6679 0.698984 18.6006 1.55354ZM21.9401 1.80588C21.2787 2.79884 20.3085 4.46842 19.7837 5.51632C18.765 7.55063 17.2357 11.045 17.2357 11.3382C17.2357 11.4849 22.3045 12.4202 22.3638 12.2845C22.7838 11.3216 25.6186 2.21821 26.0242 0.530119L26.1514 0L24.6468 0.000388271L23.1423 0.000576523L21.9401 1.80588ZM27.7117 0.722889C27.165 2.79922 25.9515 12.4029 26.2041 12.654C26.2676 12.7175 28.241 12.8148 30.5893 12.8705L34.8587 12.9717V6.48596V0H31.3804H27.9019L27.7117 0.722889ZM9.10199 2.41773C8.51617 3.01531 7.13887 4.28009 6.0414 5.22832L4.04593 6.95227L5.46042 7.59227C6.23835 7.94427 7.20316 8.34985 7.60462 8.49347L8.33433 8.75467L9.75676 7.34803L11.1792 5.94157L10.9057 4.46476C10.7555 3.65242 10.5277 2.61513 10.3997 2.15961L10.1671 1.33127L9.10199 2.41773ZM0 7.22889V7.91246L0.484149 7.5967C0.75043 7.42301 0.968297 7.25742 0.968297 7.22889C0.968297 7.20036 0.75043 7.03478 0.484149 6.86109L0 6.54533V7.22889ZM1.29616 9.06041L0 10.037V13.902C0 16.0277 0.0716538 17.7382 0.158994 17.7027C0.246528 17.6674 1.00509 16.8578 1.84461 15.9036C2.68431 14.9494 4.19292 13.2765 5.19704 12.186C6.20117 11.0957 6.97465 10.1555 6.91577 10.0969C6.83289 10.0144 4.10945 8.74195 2.79702 8.1725C2.68431 8.12354 2.00902 8.52316 1.29616 9.06041ZM10.658 8.76412L10.0079 9.43168L10.4748 9.60575C11.8644 10.1237 11.8812 10.1216 11.7451 9.44364C11.6761 9.10031 11.6196 8.65655 11.6196 8.45781C11.6196 7.93655 11.394 8.00846 10.658 8.76412ZM7.3364 12.2874C5.20305 14.4896 0.516489 19.8556 0.628811 19.9672C0.682067 20.0204 1.83105 20.2326 3.18202 20.4391C5.81482 20.8414 7.17276 21.1542 8.98715 21.7763C10.0937 22.1559 10.1507 22.1574 10.7237 21.8241C11.2129 21.5398 11.4625 21.0989 12.1543 19.2977L12.9924 17.1155L12.5402 14.5008L12.088 11.8858L10.805 11.455C10.0993 11.2181 9.35627 10.9719 9.1537 10.9079C8.87328 10.8192 8.43929 11.1487 7.3364 12.2874ZM24.1513 12.1445C24.0957 12.3566 24.129 12.5301 24.2256 12.5301C24.3221 12.5301 24.4011 12.3566 24.4011 12.1445C24.4011 11.9325 24.3676 11.759 24.3269 11.759C24.2861 11.759 24.207 11.9325 24.1513 12.1445ZM13.957 12.8856C13.9646 13.1672 14.0372 13.5666 14.1184 13.7733C14.2473 14.1014 14.2946 14.0674 14.4921 13.5036C14.7917 12.6481 14.7828 12.592 14.3308 12.4742C14.0132 12.3915 13.946 12.4657 13.957 12.8856ZM15.6028 15.151L14.7179 17.3519L15.1418 19.1057C15.3822 20.099 15.6827 20.9038 15.8353 20.9623C16.1324 21.0756 19.9177 19.7316 20.2552 19.3929C20.3716 19.2761 20.7556 18.0963 21.1085 16.771C21.4613 15.4457 21.784 14.2669 21.8256 14.1515C21.8727 14.0202 21.082 13.8112 19.7136 13.5934C18.5106 13.4018 17.2924 13.1786 17.0068 13.0976C16.4961 12.9524 16.4729 12.9866 15.6028 15.151ZM23.562 14.2128C23.5072 14.3013 23.199 15.3511 22.8776 16.5457C22.2269 18.9632 22.2102 18.9293 23.6818 18.1839L24.2212 17.9107L24.166 16.0553C24.1304 14.8647 24.0302 14.1735 23.8863 14.1258C23.763 14.0852 23.617 14.1243 23.562 14.2128ZM25.8896 15.8002C25.8293 16.5943 25.809 17.2728 25.8446 17.3083C25.8801 17.3436 27.4497 16.7818 29.3324 16.0597L32.7556 14.7469L30.8538 14.6174C29.8079 14.5463 28.2876 14.4584 27.4756 14.4221L25.9994 14.3564L25.8896 15.8002ZM30.068 17.5074L25.7612 19.1807L25.759 20.0998L25.7567 21.0191L30.2593 20.9673L34.7619 20.9156L34.8159 18.3614C34.8577 16.3822 34.8142 15.8103 34.6222 15.8207C34.4861 15.8282 32.4366 16.5871 30.068 17.5074ZM22.8034 20.291C22.1909 20.5166 21.6899 20.7712 21.6899 20.8566C21.6899 20.942 22.2127 21.012 22.8518 21.012H24.0138V20.4337C24.0138 20.1156 23.9919 19.8611 23.9654 19.8681C23.9388 19.8752 23.4159 20.0655 22.8034 20.291ZM13.4562 20.4902C13.3034 20.8634 13.4227 21.0937 13.7117 20.9838C13.8106 20.9463 13.8253 20.7421 13.7446 20.5301C13.6077 20.1705 13.5881 20.1678 13.4562 20.4902ZM0 25.1566C0 27.012 0.0501586 28.53 0.111549 28.53C0.172745 28.53 0.804656 28.1935 1.51558 27.7821C2.22631 27.3707 3.543 26.6677 4.44139 26.2199C5.58979 25.6475 6.3805 25.0841 7.1042 24.322C7.67046 23.726 8.1337 23.226 8.1337 23.2109C8.1337 22.9788 1.87327 21.7831 0.658636 21.7831H0V25.1566ZM2.26814 29.251L0 30.5327V35.303C0 38.3498 0.0716544 40.1177 0.198308 40.1955C0.307338 40.2626 1.51926 39.598 2.89172 38.7185L5.38664 37.1195L5.01636 36.3972C4.09783 34.6048 3.80793 31.412 4.36818 29.2595C4.53396 28.6228 4.6395 28.072 4.6029 28.0356C4.5663 27.9991 3.51569 28.546 2.26814 29.251ZM12.999 28.3255C11.3531 28.743 10.6298 29.8355 10.6298 31.9035C10.6298 34.2648 11.4728 35.213 13.7551 35.4189C14.9124 35.5234 14.9236 35.5303 15.4484 36.4606C15.9647 37.3755 15.9982 37.3971 16.8968 37.3973C17.4028 37.3975 17.8167 37.309 17.8167 37.2008C17.8167 37.0927 17.5899 36.6464 17.3126 36.2092L16.8083 35.4142L17.4133 34.9431C18.3411 34.2202 18.5913 33.5625 18.5913 31.8453C18.5913 30.1179 18.2164 29.3223 17.0955 28.6706C16.3846 28.2573 14.0446 28.0601 12.999 28.3255ZM42.5567 28.2733L41.8304 28.3606V31.8069V35.2533L42.7077 35.3844C44.2979 35.6217 47.1019 35.4004 47.8221 34.9807C48.9877 34.3012 49.2863 33.7003 49.2863 32.034C49.2863 30.1262 48.9831 29.4229 47.8837 28.7814C47.134 28.3442 46.768 28.2706 45.1505 28.2312C44.1234 28.2064 42.9562 28.2253 42.5567 28.2733ZM53.0143 28.276L52.0944 28.3585V31.8177V35.277H53.0627H54.031V34.2168V33.1565H55.0686H56.1064L56.8137 34.2168C57.4961 35.24 57.5511 35.277 58.3903 35.277C58.9219 35.277 59.2598 35.1899 59.2598 35.053C59.2598 34.9296 58.9879 34.407 58.6556 33.8916L58.0514 32.9543L58.5434 32.5005C59.5654 31.5577 59.3613 29.3696 58.1796 28.5989C57.6325 28.242 55.1352 28.0859 53.0143 28.276ZM64.3188 28.3255C62.6728 28.743 61.9495 29.8355 61.9495 31.9035C61.9495 33.6161 62.2884 34.3698 63.3334 34.9811C64.31 35.5521 67.5684 35.5523 68.5555 34.9813C69.6256 34.3621 69.9401 33.5502 69.8719 31.5814C69.821 30.1077 69.7569 29.849 69.3301 29.3944C69.0638 29.1109 68.5961 28.7496 68.2907 28.5915C67.6321 28.2505 65.2444 28.0905 64.3188 28.3255ZM74.885 28.4103C73.3264 28.9919 72.7945 29.8868 72.7945 31.9267C72.7945 34.4325 73.6795 35.2953 76.382 35.4241C77.2432 35.4651 78.2965 35.4237 78.7226 35.3319C79.4569 35.1741 79.5003 35.1247 79.5553 34.3849L79.6132 33.6045L77.5862 33.6942C75.6093 33.7817 75.5465 33.7717 75.0589 33.2863C74.6888 32.9179 74.5589 32.5892 74.5589 32.0213C74.5589 30.1763 75.2276 29.758 77.8598 29.9558L79.594 30.0861V29.3287C79.594 28.407 79.4968 28.3606 77.2924 28.232C76.1103 28.163 75.4085 28.215 74.885 28.4103ZM92.5208 28.2758L91.6009 28.3585V31.8177V35.277H92.4724H93.3439V34.2168V33.1565H94.407H95.4702L96.1773 34.2168C96.8731 35.2598 96.8998 35.277 97.8255 35.277C98.343 35.277 98.764 35.212 98.7613 35.1324C98.7586 35.0528 98.4592 34.5235 98.0959 33.9559L97.4353 32.9242L97.932 32.4988C98.3104 32.1749 98.4516 31.8357 98.5252 31.0752C98.6463 29.8206 98.3165 28.995 97.5286 28.5811C96.9113 28.2567 94.4229 28.105 92.5208 28.2758ZM130.55 28.3249C128.99 28.722 128.203 29.8715 128.203 31.7551C128.202 34.3372 129.137 35.2986 131.77 35.4241C132.631 35.4651 133.683 35.4237 134.109 35.3319C134.844 35.1739 134.887 35.1251 134.942 34.3825L135 33.5997L133.102 33.6774C130.583 33.7805 130.257 33.6163 130.176 32.1983C130.143 31.6234 130.165 30.9599 130.224 30.724C130.39 30.0672 131.457 29.8048 133.368 29.9511L134.981 30.0745V29.3229C134.981 28.7849 134.884 28.5345 134.642 28.4416C134.081 28.2272 131.251 28.1464 130.55 28.3249ZM21.5258 30.9855C21.6031 34.0539 21.7716 34.4917 23.109 35.0962C24.2059 35.5918 26.3392 35.5918 27.4361 35.0962C28.7735 34.4917 28.942 34.0539 29.0193 30.9855L29.0865 28.3145L28.1478 28.3741L27.2092 28.4337L27.1588 30.7469C27.0988 33.5068 26.9547 33.7348 25.2726 33.7348C23.5904 33.7348 23.4464 33.5068 23.3863 30.7469L23.336 28.4337L22.3973 28.3741L21.4586 28.3145L21.5258 30.9855ZM32.7681 31.6734C31.8942 33.5081 31.1792 35.0696 31.1792 35.1432C31.1792 35.2169 31.5553 35.277 32.0148 35.277C32.779 35.277 32.878 35.2194 33.1737 34.6023L33.4969 33.9276H35.246H36.9952L37.3184 34.6023C37.6141 35.2194 37.713 35.277 38.4772 35.277C38.9368 35.277 39.3142 35.212 39.3158 35.1324C39.3175 35.0528 38.6045 33.4916 37.7314 31.6626L36.144 28.3373H35.2507H34.3573L32.7681 31.6734ZM82.1116 31.8071V35.277H85.4038H88.696V34.4095V33.5421H86.3721C84.1774 33.5421 84.0482 33.5207 84.0482 33.1565C84.0482 32.798 84.1774 32.771 85.888 32.771H87.7277V31.9035V31.0361H85.888C84.0546 31.0361 84.0482 31.0343 84.0482 30.5541V30.0722H86.3721H88.696V29.2047V28.3373H85.4038H82.1116V31.8071ZM104.251 28.569C104.055 28.8221 101.09 35.0333 101.09 35.1914C101.09 35.2385 101.487 35.277 101.972 35.277C102.796 35.277 102.871 35.2332 103.136 34.6023L103.419 33.9276H105.163H106.906L107.229 34.6023C107.525 35.2194 107.624 35.277 108.388 35.277C108.848 35.277 109.224 35.1924 109.224 35.0889C109.224 34.9853 108.528 33.4457 107.678 31.6672L106.132 28.4337L105.289 28.3762C104.765 28.3405 104.372 28.4134 104.251 28.569ZM111.871 28.4658C111.8 28.5364 111.742 30.0978 111.742 31.9357V35.277H112.703H113.665L113.72 33.3011L113.775 31.3252L114.73 32.6264C115.99 34.3428 116.266 34.3432 117.493 32.6297L118.423 31.3318L118.478 33.3044L118.533 35.277H119.495H120.456V31.8071V28.3373L119.536 28.3403L118.616 28.3434L117.454 30.0683C116.815 31.0172 116.232 31.7963 116.158 31.8002C116.084 31.804 115.486 31.0264 114.83 30.0722C113.644 28.3488 113.63 28.3373 112.818 28.3373C112.368 28.3373 111.942 28.3951 111.871 28.4658ZM123.555 31.8071V35.277H124.426H125.298V31.8071V28.3373H124.426H123.555V31.8071ZM16.0598 30.1615C16.7165 30.4994 16.8484 30.7949 16.8484 31.928C16.8484 32.5846 16.7357 32.9007 16.3729 33.2616C15.9645 33.6683 15.7182 33.7348 14.6213 33.7348C13.5244 33.7348 13.2781 33.6683 12.8696 33.2616C12.4955 32.8894 12.3942 32.5892 12.3942 31.8528C12.3942 30.4346 12.994 29.8952 14.5826 29.8852C15.0936 29.8821 15.7585 30.0063 16.0598 30.1615ZM46.9293 30.322C47.391 30.6231 47.4462 30.7781 47.4437 31.7634C47.4419 32.3706 47.3767 32.9628 47.2984 33.0794C46.9965 33.5295 46.2579 33.7348 44.9418 33.7348H43.5734V31.9357C43.5734 30.946 43.6386 30.0705 43.7186 29.9899C43.9857 29.7204 46.388 29.9691 46.9293 30.322ZM57.0908 30.1108C57.4227 30.4412 57.3778 31.1668 57.0168 31.3046C56.8483 31.369 56.1076 31.4216 55.3707 31.4216H54.031V30.7791C54.031 30.4255 54.0891 30.0786 54.1602 30.008C54.3877 29.7813 56.8464 29.8675 57.0908 30.1108ZM67.3795 30.1615C68.0362 30.4994 68.1681 30.7949 68.1681 31.928C68.1681 32.5846 68.0554 32.9007 67.6927 33.2616C67.2843 33.6683 67.0379 33.7348 65.941 33.7348C64.8442 33.7348 64.5978 33.6683 64.1894 33.2616C63.8152 32.8894 63.714 32.5892 63.714 31.8528C63.714 30.4346 64.3137 29.8952 65.9023 29.8852C66.4134 29.8821 67.0782 30.0063 67.3795 30.1615ZM96.5255 30.1823C97.3214 30.9748 96.7189 31.4216 94.8544 31.4216H93.3439V30.7791C93.3439 30.4255 93.402 30.0786 93.473 30.008C93.5439 29.9373 94.1913 29.8794 94.9115 29.8794C95.8438 29.8794 96.3088 29.9668 96.5255 30.1823ZM35.8032 31.2163C36.0294 31.7397 36.2143 32.2168 36.2143 32.2765C36.2143 32.3365 35.7693 32.3854 35.2253 32.3854C34.5119 32.3854 34.2632 32.3184 34.3325 32.1445C34.93 30.6499 35.1165 30.265 35.2431 30.265C35.325 30.265 35.577 30.6931 35.8032 31.2163ZM105.831 31.3751L106.301 32.3854H105.229C104.639 32.3854 104.185 32.3199 104.221 32.2399C104.257 32.1599 104.451 31.6799 104.653 31.1733C104.856 30.6665 105.097 30.2773 105.191 30.3083C105.284 30.3394 105.572 30.8194 105.831 31.3751ZM3.96537 39.9953L2.03342 41.2434L3.09855 41.2685C4.12417 41.2928 5.28942 41.2496 5.35933 41.1848C5.40387 41.1436 5.95948 38.7469 5.92443 38.7469C5.90952 38.7469 5.02779 39.3086 3.96537 39.9953ZM7.28741 40.3372C7.06915 41.1484 7.13984 41.2529 7.9077 41.2529C8.31612 41.2529 8.70189 41.2014 8.76522 41.1384C8.87212 41.032 7.71714 39.9035 7.5014 39.9035C7.44795 39.9035 7.3517 40.0988 7.28741 40.3372ZM10.4576 42.6058C9.87179 42.6958 8.80802 42.8251 8.0938 42.8932C6.67506 43.0281 6.69849 43.0042 6.48507 44.53L6.36384 45.3975L8.80008 46.6023C10.14 47.265 11.349 47.8071 11.4869 47.8071C11.8816 47.8071 15.686 44.348 15.6891 43.9866C15.6905 43.8083 15.7408 43.48 15.8011 43.2569C15.9041 42.8751 15.816 42.844 14.2975 42.726C13.4105 42.657 12.4233 42.5649 12.1037 42.5213C11.7842 42.4776 11.0434 42.5155 10.4576 42.6058ZM0 48.9637C0 52.3565 0.0654569 55.1314 0.145245 55.1302C0.225032 55.1289 1.1544 54.8687 2.21023 54.5519C3.26607 54.235 4.15922 53.9757 4.19524 53.9757C4.23107 53.9757 4.26496 52.8264 4.27038 51.4215C4.276 50.0166 4.3463 48.2773 4.42686 47.5561L4.57327 46.2449L3.10959 45.2163C2.30474 44.6505 1.34574 43.8744 0.978755 43.4913C0.611577 43.1083 0.2413 42.7951 0.155702 42.7951C0.0701049 42.7951 0 45.5709 0 48.9637ZM18.8818 43.7788C18.2427 44.3179 17.598 44.875 17.4493 45.0169C17.2504 45.2068 16.1948 50.3131 16.3543 50.3131C16.3687 50.3131 18.076 49.8855 20.1485 49.3629L23.9169 48.413L23.9752 47.548C24.0238 46.8276 23.8699 46.3578 23.0536 44.7389L22.0737 42.7951L21.0587 42.7968C20.121 42.7983 19.9553 42.8731 18.8818 43.7788ZM25.7567 44.6198C25.7567 46.8845 26.1338 47.8998 26.9136 47.734C27.1826 47.6768 28.8843 47.3227 30.695 46.9469C32.5057 46.5712 34.1832 46.219 34.423 46.1643C34.8328 46.0708 34.8587 45.9673 34.8587 44.4299V42.7951H30.3077H25.7567V44.6198ZM3.7721 43.6693C4.6364 44.2809 4.74892 44.3154 4.87131 44.0066C5.22145 43.1245 5.09402 42.9878 3.92219 42.9878H2.80922L3.7721 43.6693ZM14.0643 47.8958L13.1198 48.7382L13.9084 49.1387C14.3422 49.3589 14.7367 49.4747 14.7851 49.3961C14.8996 49.2099 15.1719 47.0333 15.0793 47.0447C15.0404 47.0493 14.5837 47.4323 14.0643 47.8958ZM6.12719 47.5661C5.91727 48.3033 5.76679 53.0582 5.95561 52.9874C6.23661 52.882 10.1352 49.1557 10.0476 49.0759C9.93144 48.9699 6.40897 47.2288 6.31078 47.2288C6.26256 47.2288 6.18006 47.3807 6.12719 47.5661ZM30.9381 48.5614C29.0481 48.9583 27.4597 49.3246 27.4086 49.3757C27.3052 49.4784 30.6879 55.483 31.0486 55.8375C31.1737 55.9603 31.9691 56.2516 32.816 56.485C33.663 56.7185 34.4693 56.9525 34.6073 57.0053C34.8091 57.0824 34.8587 56.1837 34.8587 52.4542C34.8587 48.8563 34.8041 47.8108 34.6166 47.8235C34.4836 47.8325 32.8282 48.1647 30.9381 48.5614ZM25.5716 51.1054C25.5669 51.9123 25.5098 52.9591 25.4447 53.4316L25.3264 54.2907L26.9456 54.7788C27.8362 55.0472 28.5919 55.2455 28.6252 55.2199C28.6583 55.194 28.1682 54.2745 27.5359 53.1767C26.9036 52.0789 26.2048 50.8336 25.9831 50.4095L25.5801 49.6384L25.5716 51.1054ZM10.3608 51.2014C9.61519 51.8963 9.13589 52.4264 9.29565 52.3792C9.45542 52.332 10.5744 52.005 11.7822 51.6527L13.9783 51.0119L12.9442 50.4789C12.3754 50.1857 11.8665 49.9439 11.8132 49.9418C11.76 49.9397 11.1064 50.5064 10.3608 51.2014ZM21.351 50.738C20.0461 51.0666 18.9786 51.3918 18.9786 51.4607C18.9786 51.6076 20.2213 52.2269 22.3193 53.1254L23.8201 53.7683V51.9443C23.8201 50.9411 23.7982 50.125 23.7717 50.1304C23.7452 50.1359 22.6558 50.4095 21.351 50.738ZM15.9858 52.4818C15.9335 52.7202 15.5857 54.6071 15.2131 56.6745C14.8405 58.742 14.3701 61.2361 14.1677 62.2167L13.8 63.9998H18.7131H23.6265L23.6588 60.048C23.6764 57.8745 23.6983 55.958 23.7072 55.7889C23.7181 55.58 23.2277 55.2814 22.174 54.8554C21.3219 54.5109 19.6458 53.7382 18.4494 53.1385C17.2527 52.5388 16.2304 52.048 16.1775 52.048C16.1245 52.048 16.0383 52.2433 15.9858 52.4818ZM12.7815 53.0605C8.66607 54.2481 6.03385 55.1611 5.92714 55.4377C5.77144 55.8416 5.77686 60.662 5.93508 62.5249L6.06018 63.9998H9.09231H12.1242L12.4571 62.3131C13.3542 57.7687 14.1457 53.2702 14.0959 52.9994C14.0463 52.7299 13.9044 52.7364 12.7815 53.0605ZM1.3072 56.5232L0 56.9247V57.9563C0 58.5236 0.0671991 58.9878 0.149311 58.9878C0.231616 58.9878 0.890833 58.3372 1.61434 57.542C2.33786 56.7468 2.8588 56.102 2.77204 56.1089C2.68528 56.1159 2.02626 56.3023 1.3072 56.5232ZM25.3694 60.048V63.9998H29.7381C33.1803 63.9998 34.0767 63.9487 33.9642 63.7588C33.7856 63.4575 30.157 57.5644 30.0986 57.4809C30.0465 57.4065 25.7188 56.101 25.5146 56.0981C25.4347 56.0972 25.3694 57.8745 25.3694 60.048ZM2.08184 59.4113L0 61.6355V62.8177V63.9998L2.17867 64H4.35734L4.3037 61.1566C4.2181 56.6331 4.48554 56.843 2.08184 59.4113ZM32.8123 58.7468C32.9703 59.0385 33.4955 59.8842 33.9791 60.6263L34.8587 61.9757L34.8103 60.358L34.7619 58.7401L33.8904 58.4814C32.5867 58.0943 32.4736 58.122 32.8123 58.7468Z" fill="#252B42"/>
</svg>
