<svg width="16" height="16" viewBox="0 0 16 16" fill="none" xmlns="http://www.w3.org/2000/svg">
<path d="M3.65447 1.32811C3.59544 1.25217 3.52092 1.18966 3.43587 1.14474C3.35082 1.09981 3.25719 1.07349 3.16119 1.06753C3.06519 1.06158 2.96902 1.07611 2.87907 1.11018C2.78912 1.14424 2.70744 1.19706 2.63947 1.26511L1.60547 2.30011C1.12247 2.78411 0.944471 3.46911 1.15547 4.07011C2.03121 6.5577 3.45577 8.81621 5.32347 10.6781C7.1854 12.5458 9.4439 13.9703 11.9315 14.8461C12.5325 15.0571 13.2175 14.8791 13.7015 14.3961L14.7355 13.3621C14.8035 13.2941 14.8563 13.2125 14.8904 13.1225C14.9245 13.0326 14.939 12.9364 14.933 12.8404C14.9271 12.7444 14.9008 12.6508 14.8558 12.5657C14.8109 12.4807 14.7484 12.4061 14.6725 12.3471L12.3655 10.5531C12.2843 10.4902 12.19 10.4465 12.0895 10.4254C11.989 10.4042 11.8851 10.4062 11.7855 10.4311L9.59547 10.9781C9.30315 11.0512 8.99689 11.0473 8.70652 10.9669C8.41614 10.8864 8.15154 10.7322 7.93847 10.5191L5.48247 8.06211C5.26924 7.84915 5.1148 7.58459 5.03418 7.29421C4.95357 7.00383 4.94954 6.69752 5.02247 6.40511L5.57047 4.21511C5.59538 4.11551 5.59734 4.01155 5.57621 3.91107C5.55507 3.8106 5.51139 3.71624 5.44847 3.63511L3.65447 1.32811ZM1.88447 0.511112C2.05947 0.336061 2.2697 0.200242 2.50121 0.112673C2.73272 0.025104 2.98021 -0.0122114 3.22725 0.00320493C3.47429 0.0186212 3.71522 0.0864163 3.93405 0.202089C4.15288 0.317761 4.3446 0.478663 4.49647 0.674112L6.29047 2.98011C6.61947 3.40311 6.73547 3.95411 6.60547 4.47411L6.05847 6.66411C6.03019 6.77754 6.03172 6.89636 6.06291 7.00902C6.0941 7.12169 6.15389 7.22437 6.23647 7.30711L8.69347 9.76411C8.77631 9.84686 8.87916 9.90675 8.99202 9.93795C9.10488 9.96914 9.22389 9.97058 9.33747 9.94211L11.5265 9.39511C11.7831 9.33095 12.0509 9.32597 12.3098 9.38054C12.5686 9.43511 12.8116 9.54781 13.0205 9.71011L15.3265 11.5041C16.1555 12.1491 16.2315 13.3741 15.4895 14.1151L14.4555 15.1491C13.7155 15.8891 12.6095 16.2141 11.5785 15.8511C8.93965 14.9226 6.54374 13.4119 4.56847 11.4311C2.58776 9.45613 1.07708 7.06057 0.148471 4.42211C-0.213529 3.39211 0.111471 2.28511 0.851471 1.54511L1.88547 0.511112H1.88447Z" fill="white"/>
</svg>
