<svg width="24" height="45" viewBox="0 0 24 45" fill="none" xmlns="http://www.w3.org/2000/svg">
<path fill-rule="evenodd" clip-rule="evenodd" d="M0.500773 43.7724C0.659111 43.9302 0.847209 44.0554 1.0543 44.1408C1.26138 44.2263 1.48339 44.2703 1.70759 44.2703C1.9318 44.2703 2.1538 44.2263 2.36089 44.1408C2.56797 44.0554 2.75607 43.9302 2.91441 43.7724L23.369 23.4352C23.5277 23.2778 23.6536 23.0908 23.7396 22.8849C23.8255 22.679 23.8697 22.4582 23.8697 22.2353C23.8697 22.0124 23.8255 21.7917 23.7396 21.5858C23.6536 21.3799 23.5277 21.1928 23.369 21.0354L2.91441 0.698261C2.59434 0.380028 2.16023 0.201248 1.70759 0.201248C1.25494 0.201248 0.820838 0.380028 0.50077 0.698261C0.180701 1.01649 0.0008887 1.4481 0.00088874 1.89815C0.000888779 2.3482 0.180702 2.77981 0.50077 3.09805L19.7519 22.2353L0.500773 41.3726C0.342035 41.53 0.216093 41.717 0.130162 41.9229C0.0442307 42.1288 -1.67914e-07 42.3496 -1.48426e-07 42.5725C-1.28938e-07 42.7954 0.0442307 43.0161 0.130162 43.222C0.216093 43.4279 0.342035 43.6149 0.500773 43.7724Z" fill="#626262"/>
</svg>
