<svg width="18" height="15" viewBox="0 0 18 15" fill="none" xmlns="http://www.w3.org/2000/svg">
<path d="M1.42918 6.83999C6.66585 4.53624 13.4425 1.72749 14.3779 1.33874C16.8317 0.321239 17.5846 0.516239 17.2092 2.76957C16.9396 4.38916 16.1617 9.75124 15.5417 13.0887C15.1738 15.0679 14.3483 15.3025 13.0504 14.4462C12.4263 14.0342 9.27585 11.9508 8.5921 11.4617C7.96793 11.0158 7.1071 10.4796 8.18668 9.42332C8.57085 9.04707 11.0892 6.64249 13.0513 4.77082C13.3083 4.52499 12.9854 4.12124 12.6888 4.31832C10.0442 6.07207 6.37752 8.50624 5.91085 8.82332C5.20585 9.30207 4.52877 9.52166 3.31335 9.17249C2.39502 8.90874 1.49793 8.59416 1.14876 8.47416C-0.195818 8.01249 0.123348 7.41457 1.42918 6.83999Z" fill="white"/>
</svg>
