<svg width="16" height="16" viewBox="0 0 16 16" fill="none" xmlns="http://www.w3.org/2000/svg">
<path d="M13 0.1875H3C1.61937 0.1875 0.5 1.30687 0.5 2.6875V12.6875C0.5 14.0681 1.61937 15.1875 3 15.1875H13C14.3806 15.1875 15.5 14.0681 15.5 12.6875V2.6875C15.5 1.30687 14.3806 0.1875 13 0.1875ZM11.2259 11.125C10.845 9.93625 9.89563 9.01656 8.64 8.89156V11.125H8.44625C5.03 11.125 3.08125 8.77875 3 4.875H4.71156C4.76781 7.74031 6.02938 8.95406 7.02875 9.20438V4.875H8.64031V7.34625C9.62719 7.24 10.6641 6.11375 11.0138 4.875H12.6253C12.3569 6.40156 11.2325 7.5275 10.4328 7.99062C11.2322 8.36594 12.5128 9.34813 13 11.125H11.2259Z" fill="white"/>
</svg>
