<svg width="16" height="16" viewBox="0 0 16 16" fill="none" xmlns="http://www.w3.org/2000/svg">
<path d="M8 0C3.582 0 0 3.582 0 8C0 9.50081 0.421561 10.9 1.14063 12.1003L0.0716146 16L4.05469 14.9544C5.21957 15.6167 6.56433 16 8 16C12.418 16 16 12.418 16 8C16 3.582 12.418 0 8 0ZM5.26172 4.26823C5.39172 4.26823 5.52529 4.26744 5.64063 4.27344C5.78329 4.27677 5.93857 4.28722 6.08724 4.61589C6.26391 5.00655 6.64858 5.9866 6.69792 6.08594C6.74725 6.18527 6.78221 6.30229 6.71354 6.43229C6.64821 6.56563 6.61423 6.64632 6.51823 6.76432C6.4189 6.87899 6.31005 7.02141 6.22005 7.10807C6.12072 7.20741 6.01815 7.31632 6.13281 7.51432C6.24748 7.71232 6.64571 8.36142 7.23437 8.88542C7.99104 9.56142 8.62946 9.76916 8.82813 9.86849C9.02679 9.96782 9.14184 9.95234 9.25651 9.81901C9.37451 9.68901 9.75208 9.24294 9.88542 9.04427C10.0154 8.8456 10.1481 8.87998 10.3281 8.94531C10.5108 9.01065 11.4849 9.49051 11.6836 9.58984C11.8823 9.68918 12.0125 9.73834 12.0625 9.81901C12.1138 9.90234 12.1139 10.2991 11.9492 10.7617C11.7846 11.2237 10.9759 11.6705 10.6133 11.7018C10.2473 11.7358 9.90571 11.8663 8.23437 11.2083C6.21838 10.4143 4.94699 8.34948 4.84766 8.21615C4.74832 8.08615 4.04036 7.1426 4.04036 6.16927C4.04036 5.1926 4.55244 4.71429 4.73177 4.51563C4.91444 4.31696 5.12839 4.26823 5.26172 4.26823Z" fill="white"/>
</svg>
