<svg width="34" height="32" viewBox="0 0 34 32" fill="none" xmlns="http://www.w3.org/2000/svg">
<path fill-rule="evenodd" clip-rule="evenodd" d="M0.881196 0.153525C-0.231381 0.66506 -0.306452 2.14069 0.747397 2.78447L1.07239 2.98297L2.91449 3.00311C4.60484 3.02161 4.76575 3.03322 4.86739 3.14415C4.95309 3.23769 5.24846 5.09149 6.17064 11.3238C7.04637 17.2422 7.40784 19.5219 7.53181 19.9073C7.96104 21.2422 9.16603 22.3361 10.5662 22.6621C11.1878 22.8068 27.5568 22.8069 28.2549 22.6622C29.6897 22.3647 30.9665 21.1951 31.3886 19.7917C31.534 19.3083 34.0017 7.08279 34 6.85425C33.9982 6.61357 33.7801 6.12184 33.5821 5.91213C33.5022 5.82744 33.3172 5.6946 33.171 5.61693L32.9053 5.4757L20.6482 5.4429L8.39101 5.4101L8.24339 4.42613C8.00522 2.83813 7.8972 2.355 7.67903 1.90185C7.40798 1.33882 6.68444 0.619863 6.13244 0.365211C5.44497 0.0480434 5.04344 0.000550383 3.04304 2.55981e-05C1.26485 -0.000433589 1.20712 0.00363344 0.881196 0.153525ZM11.7158 24.2187C10.1455 24.4152 8.75028 25.6626 8.38549 27.1961C8.24 27.8076 8.2889 28.8037 8.49245 29.3769C9.03409 30.9021 10.5083 31.9446 12.1236 31.9446C13.1963 31.9446 14.0382 31.5893 14.8376 30.7994C15.6858 29.9613 15.9977 29.2316 15.9977 28.0863C15.9977 27.3461 15.8697 26.8101 15.5584 26.2466C15.2521 25.6923 14.9941 25.3844 14.544 25.0358C13.6923 24.3762 12.7144 24.0937 11.7158 24.2187ZM25.2986 24.2117C23.7454 24.3772 22.4026 25.4992 21.9543 27.0061C21.68 27.9279 21.7773 28.9347 22.2288 29.8454C22.5357 30.4645 23.2829 31.2297 23.8826 31.539C25.4199 32.3319 27.2318 32.0874 28.4863 30.9178C28.9883 30.4498 29.2904 29.9858 29.5333 29.3098C29.7797 28.6244 29.7777 27.6775 29.5282 26.9263C28.9294 25.1225 27.1953 24.0095 25.2986 24.2117Z" fill="black"/>
</svg>
