<svg width="28" height="32" viewBox="0 0 28 32" fill="none" xmlns="http://www.w3.org/2000/svg">
<path fill-rule="evenodd" clip-rule="evenodd" d="M13.2052 0.0217326C11.2633 0.274321 9.70053 1.02626 8.35458 2.3557C5.37948 5.29429 5.06103 10.0551 7.61459 13.418C10.071 16.6529 14.5571 17.5649 18.0044 15.5302C21.0498 13.7326 22.6222 10.2416 21.9706 6.72378C21.3697 3.47939 18.8128 0.833598 15.633 0.165997C15.0281 0.0389517 13.6859 -0.0407571 13.2052 0.0217326ZM7.45852 17.3285C4.75248 17.8151 2.2702 19.5357 0.722131 21.9979C0.395057 22.518 0 23.3995 0 23.6089C0 24.0206 1.16273 25.6955 2.26201 26.8674C4.94781 29.7306 8.25884 31.4371 12.0742 31.9245C12.8686 32.026 15.0834 32.0249 15.8646 31.9226C18.9566 31.5177 21.7075 30.3349 24.0873 28.3872C24.8244 27.7839 26.2781 26.2464 26.8484 25.4669C27.4925 24.5864 28 23.7419 28 23.5502C28 23.3643 27.6546 22.5937 27.3575 22.117C26.3138 20.442 24.859 19.0803 23.2255 18.2493C22.0336 17.6428 20.5482 17.2216 19.7979 17.2772C19.5359 17.2966 19.3684 17.3552 19.1242 17.5131C18.2401 18.0845 17.9629 18.2437 17.4705 18.4631C16.2574 19.0033 15.0175 19.2411 13.6943 19.1872C12.0047 19.1185 10.5901 18.6541 9.17862 17.7049C8.87154 17.4983 8.54459 17.3121 8.45209 17.291C8.35953 17.27 8.24258 17.2438 8.19214 17.2329C8.1417 17.2219 7.81157 17.265 7.45852 17.3285Z" fill="black"/>
</svg>
