<svg width="32" height="32" viewBox="0 0 32 32" fill="none" xmlns="http://www.w3.org/2000/svg">
<path fill-rule="evenodd" clip-rule="evenodd" d="M12.0797 0.0691296C6.2526 0.665418 1.40625 5.09084 0.259589 10.8626C-1.01597 17.2826 2.50915 23.6789 8.63961 26.0681C12.8995 27.7283 17.9116 27.037 21.5459 24.2881C21.7758 24.1142 21.9964 23.9719 22.036 23.9719C22.0757 23.9719 23.8573 25.7242 25.9951 27.8658C28.623 30.4985 29.9667 31.7994 30.1433 31.8823C31.1813 32.3693 32.3433 31.2548 31.9049 30.1927C31.8352 30.0238 30.6014 28.7453 27.8563 25.9972L23.908 22.0446L24.255 21.5873C26.5681 18.5389 27.4731 14.4743 26.6775 10.7063C26.2787 8.81733 25.4066 6.90766 24.2284 5.34289C23.7 4.64115 22.3288 3.26989 21.6271 2.74148C18.8965 0.685083 15.4599 -0.276805 12.0797 0.0691296ZM15.2493 2.82955C17.621 3.25447 19.6055 4.30058 21.2296 5.98197C22.8287 7.63743 23.7615 9.50796 24.1737 11.8854C24.2836 12.519 24.2836 14.4531 24.1737 15.0867C23.7377 17.6019 22.6731 19.6286 20.9062 21.3079C19.3264 22.8093 17.3481 23.7918 15.1933 24.1452C14.3786 24.2789 12.7241 24.2938 11.949 24.1746C8.37986 23.6254 5.42605 21.4863 3.81273 18.2825C3.05236 16.7726 2.70984 15.2828 2.70984 13.486C2.70984 12.3343 2.76988 11.8344 3.03557 10.7748C3.68972 8.1657 5.48661 5.72162 7.78314 4.31724C9.28396 3.39945 10.6791 2.93461 12.6023 2.7115C13.0387 2.66086 14.7283 2.73626 15.2493 2.82955Z" fill="black"/>
</svg>
